Coordinates
version=1
nRows=42
nColumns=38
inDegrees=no

Units are S.I. units (second, meters, Newtons, ...)
If the header above contains a line with 'inDegrees', this indicates whether rotational values are in degrees (yes) or radians (no).

endheader
time	pelvis_tilt	pelvis_list	pelvis_rotation	pelvis_tx	pelvis_ty	pelvis_tz	hip_flexion_r	hip_adduction_r	hip_rotation_r	knee_angle_r	ankle_angle_r	subtalar_angle_r	mtp_angle_r	hip_flexion_l	hip_adduction_l	hip_rotation_l	knee_angle_l	ankle_angle_l	subtalar_angle_l	mtp_angle_l	lumbar_extension	lumbar_bending	lumbar_rotation	arm_flex_r	arm_add_r	arm_rot_r	elbow_flex_r	pro_sup_r	wrist_flex_r	wrist_dev_r	arm_flex_l	arm_add_l	arm_rot_l	elbow_flex_l	pro_sup_l	wrist_flex_l	wrist_dev_l
20.5	2.79259	1.32767	-1.30241	0.674851	-0.484736	0.952813	-0.309777	0.061918	-0.18787	0	-0.0747448	0	0	-0.347878	-0.086488	-0.286977	0	-0.0046118	0	0	-0.339353	0.048066	0.136711	0.0519053	-0.321127	0.892724	0.45748	0.871312	0	0	0.040731	-0.221297	0.24279	0.54213	1.5708	0	0
20.51	2.7926	1.32644	-1.30313	0.675051	-0.484616	0.952826	-0.311454	0.0622011	-0.187036	0	-0.0745364	0	0	-0.349661	-0.0866999	-0.288361	0	-0.00322823	0	0	-0.340759	0.0486284	0.137639	0.053512	-0.319465	0.89589	0.452899	0.872828	0	0	0.0393564	-0.217137	0.236217	0.532632	1.5708	0	0
20.52	2.79289	1.32546	-1.30396	0.675204	-0.484522	0.952852	-0.312836	0.0623544	-0.18644	0	-0.0745593	0	0	-0.351152	-0.0868329	-0.289149	0	-0.0018336	0	0	-0.342116	0.0492184	0.138091	0.0552767	-0.317665	0.896507	0.448464	0.872613	0	0	0.0380191	-0.21319	0.231956	0.52263	1.5708	0	0
20.53	2.793	1.32511	-1.30466	0.675352	-0.48442	0.952819	-0.313478	0.0623641	-0.186012	0	-0.0745704	0	0	-0.35194	-0.0868129	-0.289686	0	-2.3206e-06	0	0	-0.342937	0.049747	0.138177	0.0570163	-0.315876	0.894562	0.444663	0.870577	0	0	0.0370595	-0.20925	0.228703	0.511421	1.5708	0	0
20.54	2.79342	1.32522	-1.30584	0.675501	-0.484332	0.952751	-0.313587	0.0621007	-0.185602	0	-0.0743267	0	0	-0.352226	-0.086536	-0.290547	0	0.00217226	0	0	-0.343461	0.0500719	0.138432	0.0586945	-0.314823	0.895809	0.442081	0.870737	0	0	0.0364949	-0.205447	0.226488	0.499868	1.5708	0	0
20.55	2.7938	1.32486	-1.30656	0.67561	-0.48415	0.952758	-0.314292	0.0620336	-0.185312	0	-0.0737382	0	0	-0.353077	-0.0866121	-0.291096	0	0.00407038	0	0	-0.344191	0.0505848	0.138518	0.0600195	-0.314644	0.901221	0.440666	0.874566	0	0	0.0360667	-0.202	0.225448	0.488505	1.5708	0	0
20.56	2.79436	1.32442	-1.30779	0.675746	-0.483963	0.952798	-0.315061	0.0618663	-0.184708	0	-0.0734167	0	0	-0.35411	-0.0866184	-0.291685	0	0.00576798	0	0	-0.34495	0.0509114	0.139041	0.0613843	-0.315078	0.910297	0.440194	0.881985	0	0	0.0360705	-0.198715	0.225788	0.476954	1.5708	0	0
20.57	2.79385	1.32446	-1.3082	0.675871	-0.483765	0.952798	-0.315216	0.0617772	-0.183786	0	-0.073275	0	0	-0.354486	-0.0865725	-0.292457	0	0.00744001	0	0	-0.345167	0.0514164	0.139641	0.0628113	-0.315665	0.917558	0.440042	0.888965	0	0	0.0362235	-0.195497	0.227372	0.465193	1.5708	0	0
20.58	2.79306	1.32498	-1.30775	0.675918	-0.483602	0.952752	-0.314773	0.0617793	-0.183504	0	-0.0732965	0	0	-0.354095	-0.0866337	-0.292438	0	0.00891722	0	0	-0.344959	0.0519871	0.139596	0.0638377	-0.316347	0.921257	0.44085	0.894686	0	0	0.0365771	-0.192671	0.230488	0.454019	1.5708	0	0
20.59	2.79413	1.32535	-1.30849	0.675888	-0.483507	0.952746	-0.314517	0.0615166	-0.18419	0	-0.0731884	0	0	-0.353669	-0.0864574	-0.291772	0	0.0101337	0	0	-0.345158	0.0521733	0.138929	0.0646994	-0.316913	0.922509	0.441956	0.899784	0	0	0.0373239	-0.190314	0.234906	0.443682	1.5708	0	0
20.6	2.79613	1.32583	-1.30995	0.675807	-0.483407	0.952752	-0.314229	0.0610102	-0.185053	0	-0.0730699	0	0	-0.353125	-0.0860647	-0.290844	0	0.0110096	0	0	-0.345376	0.052235	0.13783	0.0656561	-0.317366	0.923322	0.442885	0.904609	0	0	0.0381687	-0.188204	0.240155	0.433744	1.5708	0	0
20.61	2.79715	1.32644	-1.3108	0.675757	-0.483284	0.952737	-0.31373	0.0606179	-0.185455	0	-0.0731027	0	0	-0.352515	-0.0857329	-0.290676	0	0.0117873	0	0	-0.345297	0.0524663	0.1371	0.0664999	-0.317935	0.924084	0.443827	0.909029	0	0	0.0384042	-0.18649	0.245745	0.425366	1.5708	0	0
20.62	2.79725	1.32718	-1.31062	0.675676	-0.483156	0.95271	-0.313102	0.0604464	-0.185966	0	-0.0730676	0	0	-0.351709	-0.0855644	-0.290512	0	0.0124593	0	0	-0.344976	0.0529129	0.136357	0.0670297	-0.318373	0.923775	0.444426	0.9127	0	0	0.0379039	-0.185331	0.251782	0.419315	1.5708	0	0
20.63	2.79809	1.32747	-1.31094	0.675574	-0.483067	0.952705	-0.312974	0.0602788	-0.186589	0	-0.0730704	0	0	-0.351342	-0.0853545	-0.290217	0	0.0129094	0	0	-0.345175	0.0531507	0.135417	0.0674767	-0.318774	0.92269	0.445234	0.915921	0	0	0.038007	-0.184631	0.259772	0.414877	1.5708	0	0
20.64	2.79798	1.32763	-1.3105	0.675489	-0.482939	0.95269	-0.312973	0.0603085	-0.186939	0	-0.073192	0	0	-0.351123	-0.0853389	-0.29039	0	0.0130159	0	0	-0.345269	0.0536425	0.134863	0.0677822	-0.319354	0.922191	0.446085	0.918745	0	0	0.0384182	-0.184083	0.269305	0.410765	1.5708	0	0
20.65	2.7966	1.32822	-1.30891	0.675379	-0.482775	0.952622	-0.312459	0.0604426	-0.187225	0	-0.073145	0	0	-0.350465	-0.0854787	-0.290443	0	0.0127841	0	0	-0.344727	0.0545652	0.134294	0.0682636	-0.320082	0.922857	0.446567	0.92068	0	0	0.038315	-0.183504	0.278451	0.407133	1.5708	0	0
20.66	2.79594	1.32884	-1.30802	0.675277	-0.482619	0.952537	-0.311965	0.0603999	-0.187403	0	-0.07292	0	0	-0.349878	-0.0854569	-0.290291	0	0.0121269	0	0	-0.344177	0.0551742	0.133786	0.0684724	-0.320677	0.922338	0.447129	0.921123	0	0	0.0379458	-0.183295	0.286902	0.40533	1.5708	0	0
20.67	2.798	1.32882	-1.30964	0.675203	-0.482563	0.952521	-0.312231	0.0599782	-0.187845	0	-0.0727237	0	0	-0.349995	-0.085007	-0.290326	0	0.0113759	0	0	-0.344697	0.0550193	0.133086	0.0687056	-0.320859	0.919784	0.447815	0.91983	0	0	0.0379006	-0.183642	0.295243	0.405465	1.5708	0	0
20.68	2.79926	1.32848	-1.31011	0.675086	-0.482517	0.952521	-0.312817	0.0599026	-0.188442	0	-0.0725018	0	0	-0.350281	-0.0849102	-0.290084	0	0.0096226	0	0	-0.345506	0.0552544	0.132106	0.0688543	-0.321098	0.916603	0.448699	0.917708	0	0	0.0376511	-0.184402	0.304309	0.407186	1.5708	0	0
20.69	2.79875	1.32857	-1.3087	0.674903	-0.48244	0.952487	-0.312813	0.0601019	-0.188976	0	-0.0723301	0	0	-0.34995	-0.0850509	-0.289096	0	0.00581997	0	0	-0.345606	0.0561293	0.131304	0.0687256	-0.321576	0.913809	0.449462	0.915858	0	0	0.036776	-0.185354	0.313991	0.40947	1.5708	0	0
20.7	2.79798	1.3286	-1.30692	0.674698	-0.482317	0.952445	-0.312923	0.060385	-0.189495	0	-0.0718657	0	0	-0.349657	-0.0852612	-0.287737	0	0.00135634	0	0	-0.345591	0.0571429	0.130661	0.0683517	-0.322031	0.911117	0.449955	0.91442	0	0	0.0359164	-0.18637	0.323561	0.412154	1.5708	0	0
20.71	2.79803	1.32815	-1.30602	0.674512	-0.482181	0.952452	-0.313648	0.0605959	-0.189847	0	-0.0715775	0	0	-0.350105	-0.0854013	-0.287156	0	-0.00207183	0	0	-0.346074	0.0579842	0.13021	0.0678988	-0.322404	0.909048	0.450365	0.913912	0	0	0.0353529	-0.187457	0.332632	0.415208	1.5708	0	0
20.72	2.79872	1.32752	-1.30575	0.67435	-0.48208	0.952438	-0.314599	0.0607171	-0.190187	0	-0.071323	0	0	-0.350892	-0.0854715	-0.286505	0	-0.00432918	0	0	-0.346836	0.0585538	0.129961	0.0675018	-0.322544	0.906827	0.450394	0.913689	0	0	0.0352572	-0.188696	0.341466	0.419982	1.5708	0	0
20.73	2.79967	1.32692	-1.30566	0.674145	-0.482005	0.952419	-0.315455	0.0606986	-0.190763	0	-0.071353	0	0	-0.351766	-0.0854174	-0.285795	0	-0.00587387	0	0	-0.347615	0.0591457	0.129677	0.0672572	-0.322196	0.901885	0.449375	0.911596	0	0	0.0349529	-0.189918	0.35011	0.425961	1.5708	0	0
20.74	2.80041	1.32636	-1.30557	0.673952	-0.481928	0.952421	-0.316321	0.0606674	-0.191003	0	-0.0709936	0	0	-0.352805	-0.0853837	-0.285266	0	-0.00703071	0	0	-0.348442	0.0597829	0.130024	0.0670772	-0.320865	0.892447	0.446363	0.904946	0	0	0.0347555	-0.190975	0.358234	0.430405	1.5708	0	0
20.75	2.80223	1.32554	-1.30667	0.673818	-0.481855	0.95245	-0.317528	0.0605129	-0.191263	0	-0.0704269	0	0	-0.354257	-0.0851921	-0.284734	0	-0.00825934	0	0	-0.349655	0.0599982	0.130518	0.0667854	-0.319627	0.886033	0.443877	0.899325	0	0	0.035264	-0.191558	0.362307	0.434184	1.5708	0	0
20.76	2.80364	1.32478	-1.30721	0.673647	-0.481782	0.952466	-0.318622	0.0604211	-0.191726	0	-0.0701386	0	0	-0.355541	-0.0851246	-0.284145	0	-0.00918946	0	0	-0.350793	0.0603384	0.130586	0.0664259	-0.319234	0.882614	0.443149	0.896115	0	0	0.0358314	-0.191856	0.363686	0.438406	1.5708	0	0
20.77	2.8041	1.32419	-1.30647	0.673404	-0.48172	0.952473	-0.319454	0.0605422	-0.192218	0	-0.0695468	0	0	-0.356483	-0.0853448	-0.283103	0	-0.00981825	0	0	-0.351728	0.0610749	0.130444	0.0661133	-0.319213	0.880404	0.442919	0.894433	0	0	0.036328	-0.191982	0.364086	0.442411	1.5708	0	0
20.78	2.80483	1.32392	-1.30589	0.673158	-0.481666	0.95246	-0.319948	0.0605878	-0.192771	0	-0.0692145	0	0	-0.357021	-0.0854677	-0.281812	0	-0.0102208	0	0	-0.35245	0.0617375	0.130059	0.0660764	-0.319071	0.878854	0.442443	0.893552	0	0	0.0365413	-0.192294	0.36413	0.446585	1.5708	0	0
20.79	2.80504	1.32359	-1.30507	0.672983	-0.481613	0.952457	-0.320438	0.060774	-0.193231	0	-0.0691849	0	0	-0.35763	-0.0857742	-0.280881	0	-0.0103411	0	0	-0.353217	0.0623792	0.130071	0.0660169	-0.31861	0.8769	0.441601	0.893089	0	0	0.0368504	-0.192718	0.363929	0.451012	1.5708	0	0
20.8	2.80402	1.32345	-1.30317	0.672813	-0.481509	0.952413	-0.320696	0.0611488	-0.193458	0	-0.0689354	0	0	-0.357859	-0.0862216	-0.280007	0	-0.0105517	0	0	-0.353555	0.0631962	0.130558	0.0656545	-0.318096	0.874755	0.440585	0.893095	0	0	0.0373062	-0.19297	0.363304	0.45531	1.5708	0	0
20.81	2.80262	1.32346	-1.30094	0.672643	-0.481402	0.952339	-0.320738	0.0615565	-0.19363	0	-0.0688226	0	0	-0.357855	-0.086664	-0.279331	0	-0.0106363	0	0	-0.353736	0.0640016	0.131274	0.0652496	-0.317571	0.872536	0.439584	0.893569	0	0	0.0379874	-0.193111	0.362101	0.459559	1.5708	0	0
20.82	2.80225	1.32328	-1.29945	0.672473	-0.481367	0.952292	-0.320985	0.0618827	-0.194259	0	-0.0686792	0	0	-0.357954	-0.0870507	-0.278337	0	-0.0106374	0	0	-0.354463	0.0645405	0.131333	0.0652122	-0.316861	0.869734	0.438862	0.894356	0	0	0.0394411	-0.193148	0.360157	0.463075	1.5708	0	0
20.83	2.80495	1.32302	-1.30027	0.672214	-0.481463	0.952304	-0.321439	0.0616256	-0.195633	0	-0.0685535	0	0	-0.357955	-0.0869412	-0.276205	0	-0.0109359	0	0	-0.355742	0.0644805	0.130504	0.0654093	-0.316012	0.865936	0.438536	0.895415	0	0	0.0413611	-0.193226	0.35748	0.466646	1.5708	0	0
20.84	2.80726	1.32303	-1.30112	0.671946	-0.48149	0.952302	-0.321632	0.0612501	-0.196581	0	-0.0687123	0	0	-0.357843	-0.086693	-0.274313	0	-0.0113622	0	0	-0.356559	0.0644792	0.130156	0.0653757	-0.315417	0.862898	0.438298	0.897063	0	0	0.0429906	-0.193182	0.355039	0.470321	1.5708	0	0
20.85	2.76235	1.30489	-1.25382	0.671045	-0.482986	0.954837	-0.335126	0.0783155	-0.20309	0	-0.0875095	0	0	-0.371687	-0.104227	-0.277415	0	-0.0129384	0	0	-0.377352	0.0836439	0.134083	0.0704117	-0.319789	0.860707	0.439103	0.898274	0	0	0.0505019	-0.187463	0.352541	0.470481	1.5708	0	0
20.86	2.76329	1.30338	-1.25402	0.670899	-0.48299	0.954941	-0.33684	0.0786764	-0.203396	0	-0.0881835	0	0	-0.373345	-0.104613	-0.277011	0	-0.0128104	0	0	-0.379677	0.0839772	0.13493	0.0705446	-0.319316	0.858363	0.439049	0.898499	0	0	0.0526985	-0.187128	0.349539	0.474525	1.5708	0	0
20.87	2.76427	1.3031	-1.25431	0.670735	-0.482968	0.954985	-0.337272	0.078602	-0.203904	0	-0.0884164	0	0	-0.373652	-0.104584	-0.276205	0	-0.012955	0	0	-0.38073	0.08402	0.135453	0.0707383	-0.318614	0.856144	0.438638	0.898009	0	0	0.0547409	-0.186883	0.347259	0.477756	1.5708	0	0
20.88	2.76523	1.30316	-1.25448	0.67057	-0.482953	0.955013	-0.337341	0.078465	-0.20449	0	-0.0885605	0	0	-0.373486	-0.10445	-0.275622	0	-0.01325	0	0	-0.381516	0.0840747	0.135281	0.071359	-0.317872	0.85438	0.438335	0.896638	0	0	0.0568107	-0.186557	0.344946	0.480291	1.5708	0	0
20.89	2.76603	1.30345	-1.25437	0.67038	-0.482941	0.955003	-0.337178	0.0783116	-0.205173	0	-0.088792	0	0	-0.372967	-0.104305	-0.274748	0	-0.0137292	0	0	-0.381926	0.084063	0.13536	0.0716003	-0.317211	0.852409	0.438212	0.894366	0	0	0.0590069	-0.186131	0.342274	0.48319	1.5708	0	0
20.9	2.76714	1.30343	-1.25497	0.670255	-0.482876	0.95501	-0.337446	0.0781207	-0.205885	0	-0.0889179	0	0	-0.373079	-0.10406	-0.274061	0	-0.014024	0	0	-0.382477	0.0837777	0.136174	0.0714652	-0.316306	0.849579	0.437861	0.890778	0	0	0.0610796	-0.185918	0.34006	0.486757	1.5708	0	0
20.91	2.76772	1.30378	-1.25523	0.670119	-0.48276	0.954985	-0.337284	0.0778626	-0.20667	0	-0.0889657	0	0	-0.372836	-0.103673	-0.274334	0	-0.0138809	0	0	-0.382637	0.0835888	0.137071	0.0714491	-0.315433	0.846983	0.437433	0.886346	0	0	0.0630822	-0.185681	0.338759	0.489927	1.5708	0	0
